<svg xmlns="http://www.w3.org/2000/svg" viewBox="0 0 429.2 180.7" enable-background="new 0 0 429.2 180.7"><path fill="none" d="M241.7 48c-4.7-3.6-10.5-5.4-17.4-5.4-11 0-19.3 4.2-24.7 12.7-5.5 8.5-8.2 21.1-8.2 37.8 0 15.5 2.8 27.1 8.3 34.8 5.5 7.7 13.9 11.5 25.2 11.5 8.1 0 14.9-1.9 20.6-5.6 5.6-3.8 9.1-8.8 10.4-15.2h-24.8V82h36.6V63.6h-15.6c-2.3-6.9-5.7-12.1-10.4-15.6zM338.1 47.9h-15.5v84.7h14.8c13.7 0 23.3-3.1 28.6-9.2 5.3-6.1 8-17.1 8-33 0-15.4-2.7-26.4-8.2-32.8-5.5-6.5-14.7-9.7-27.7-9.7z"/><path fill="#EC008C" d="M157 156.6c-14.1-16.1-21.2-38.2-21.2-66.2 0-28.6 7.9-50.9 23.6-66.7 6.9-6.9 15.1-12.4 24.5-16.3v-3h-67s-24 105-25 110.7C90.2 107.9 67.1 4.4 67.1 4.4H0v171.5h49.8V93.2c0-3.2-.1-7.4-.2-12.7-.1-5.3-.3-11.6-.5-19 1.6 8.2 2.9 14.7 4 19.6 1 4.8 2 9.1 3 12.8L77.5 176h33.7l16.4-84 .3-1.5c2.6-10.5 4.9-20.1 6.8-29-.1 5.2-.1 10.2-.2 15.1 0 4.9-.1 9.8-.1 15l-.5 84.4h49.8v-.6c-10.3-4-19.2-10.3-26.7-18.8z"/><path fill="#00AEEF" d="M230.9 82v36.7h24.8c-1.3 6.4-4.8 11.4-10.4 15.2-5.6 3.8-12.5 5.6-20.6 5.6-11.3 0-19.6-3.8-25.2-11.5-5.5-7.7-8.3-19.3-8.3-34.8 0-16.8 2.7-29.4 8.2-37.8 5.5-8.5 13.7-12.7 24.7-12.7 6.9 0 12.7 1.8 17.4 5.4 4.7 3.6 8.1 8.8 10.2 15.6h15.6V8.8C255.8 2.9 241.9 0 225.7 0c-15.9 0-29.8 2.5-41.8 7.4v167.9c9.2 3.5 19.6 5.3 31.1 5.3 11.6 0 21.9-1.6 30.6-4.8 8.5-3.1 15.8-7.9 21.9-14.2V82h-36.6z"/><path fill="#662D91" d="M159.4 23.7c-15.8 15.8-23.6 38-23.6 66.7 0 28 7.1 50.1 21.2 66.2 7.5 8.5 16.5 14.8 26.9 18.8V7.4c-9.4 3.9-17.6 9.4-24.5 16.3z"/><path fill="#FFF200" d="M420.3 43.7c-6-12.7-14.9-22.5-26.8-29.5-6.1-3.5-13.3-6-21.6-7.5S351 4.4 334.1 4.4h-66.6v4.4c4.4 2.2 8.5 4.8 12.3 7.9 13.7 11.1 21.8 26.7 24.4 46.9h-36.6V82h38.7v94h17.6c18.6 0 32-.5 40.5-1.6 8.4-1.1 15.4-2.9 21-5.5 14.4-6.4 25.4-16.3 32.8-29.5 7.4-13.2 11.1-29.6 11.1-49-.1-18.5-3.1-34.1-9-46.7zm-54.4 79.6c-5.3 6.1-14.8 9.2-28.6 9.2h-14.8V47.9H338c13 0 22.3 3.2 27.7 9.7 5.4 6.4 8.2 17.4 8.2 32.8 0 15.8-2.6 26.8-8 32.9z"/><path fill="#00A651" d="M304.1 63.6c-2.6-20.2-10.7-35.8-24.4-46.9-3.8-3-7.8-5.7-12.3-7.9v54.8h36.7zM267.5 82v93.9h38.7V82z"/></svg>